<svg width="1118" height="176" fill="none" xmlns="http://www.w3.org/2000/svg">
  <rect x="4" width="1110" height="168" rx="10" fill="#3A3054"/>
  <mask id="a" style="mask-type:alpha" maskUnits="userSpaceOnUse" x="4" y="0" width="1110" height="168">
    <rect x="4" width="1110" height="168" rx="10" fill="#fff"/>
  </mask>
  <g mask="url(#a)" fill-rule="evenodd" clip-rule="evenodd" fill="#4B3F6B">
    <path d="M651-93.924c0 52.724 15.5 90.486 73 114.877 57.5 24.391 113.055 2.134 168.786 14.894 55.731 12.76 55.731 94.962 108.214 145.549 52.48 50.587 163.14 62.874 253.12 11.552C1344.1 141.626 1384.88 21.797 1358-48.859 1331.12-119.515 1279.59-184 1031-184c-248.593 0-380 37.353-380 90.076ZM-130 119.076c0 52.724 15.5 90.486 73 114.877 57.5 24.391 113.055 2.134 168.786 14.894 55.731 12.761 55.731 94.962 108.214 145.549s163.142 62.874 253.119 11.552S603.885 234.796 577 164.141C550.115 93.485 498.593 29 250 29 1.407 29-130 66.353-130 119.076Z"/>
  </g>
</svg>
